<svg xmlns="http://www.w3.org/2000/svg" width="410" height="404" viewBox="0 0 410 404" fill="none"><path d="M399.641 59.5246L215.643 388.545C211.844 395.338 201.653 395.378 197.803 388.618L10.5817 59.5563C6.38087 52.1896 12.6802 43.2665 21.0281 44.7586L205.223 77.6824C206.398 77.8924 207.601 77.8904 208.776 77.6763L389.119 44.8058C397.439 43.2894 403.768 52.1434 399.641 59.5246Z" fill="url(#paint0_linear)"/><path d="M292.965 1.5744L156.801 28.2552C154.563 28.6937 152.906 30.5903 152.771 32.8678L144.395 174.33C144.198 177.665 147.258 180.248 150.51 179.498L188.42 170.879C191.967 170.063 195.103 173.377 194.282 176.938L183.054 225.707C182.194 229.432 185.812 232.667 189.413 231.533L212.947 224.184C216.551 223.05 220.172 226.29 219.306 230.017L201.398 309.428C200.278 314.294 206.366 317.222 209.439 313.131L211.5 310.5L330.975 107.259C333.183 102.807 329.015 97.7653 324.037 98.7463L284.53 106.35C280.895 107.056 277.764 103.688 278.617 100.109L298.161 30.9541C299.018 27.3224 296.245 24.1606 293.297 24.7462Z" fill="url(#paint1_linear)"/><defs><linearGradient id="paint0_linear" x1="6.00017" y1="32.9999" x2="235" y2="344" gradientUnits="userSpaceOnUse"><stop stop-color="#41D1FF"/><stop offset="1" stop-color="#BD34FE"/></linearGradient><linearGradient id="paint1_linear" x1="194.651" y1="8.81818" x2="236.076" y2="292.989" gradientUnits="userSpaceOnUse"><stop stop-color="#FFEA83"/><stop offset="0.0833333" stop-color="#FFDD35"/><stop offset="1" stop-color="#FFA800"/></linearGradient></defs></svg>
