<svg xmlns="http://www.w3.org/2000/svg" viewBox="0 0 841.9 595.3"><g fill="#61DAFB"><path d="M666.3 296.5c0 32.5-40.7 63.3-103.1 82.4 14.4 63.6 8 114.2-20.2 130.4-6.5 3.8-14.1 5.6-22.4 5.6v-22.3c4.6 0 8.3-.9 11.4-2.6 13.5-7.8 19-35.2 13.7-71.1-1-6.3-2.6-13-4.6-19.9-19.6 4.7-41 8.3-63.5 10.7-13.5 18.5-27.5 35.3-41.6 50.1-32.6 33.7-63.6 52.3-84 52.3-20.1 0-30.9-17.6-30.9-40.9 0-32.5 40.7-63.3 103.1-82.4-14.4-63.6-8-114.2 20.2-130.4 6.5-3.8 14.1-5.6 22.4-5.6 6.9 0 12.4 1.5 16.5 4.1 13.5 7.8 19 35.2 13.7 71.1 1 6.3 2.6 13 4.6 19.9 19.6-4.7 41-8.3 63.5-10.7 13.5-18.5 27.5-35.3 41.6-50.1 32.6-33.7 63.6-52.3 84-52.3 20.1 0 30.9 17.6 30.9 40.9z"/><path d="M520.5 78.1c-6.5 3.8-14.1 5.6-22.4 5.6-20.4 0-51.4-18.6-84-52.3-14.1-14.8-28.1-31.6-41.6-50.1-22.4 2.4-43.9 6-63.5 10.7-2 6.9-3.6 13.6-4.6 19.9-5.3 35.9.2 63.3 13.7 71.1 4.1 2.6 9.6 4.1 16.5 4.1 8.3 0 15.7-1.8 22.4-5.6 28.2-16.3 58.2-16.3 92.8 0 34.6 16.3 65.6 16.3 92.8 0 13.5-7.8 19-35.2 13.7-71.1-1-6.3-2.6-13-4.6-19.9-19.6-4.7-41-8.3-63.5-10.7-13.5 18.5-27.5 35.3-41.6 50.1-32.6 33.7-63.6 52.3-84 52.3-8.3 0-15.7-1.8-22.4-5.6-13.5-7.8-19-35.2-13.7-71.1 1-6.3 2.6-13 4.6-19.9 19.6-4.7 41-8.3 63.5-10.7 13.5-18.5 27.5-35.3 41.6-50.1 32.6-33.7 63.6-52.3 84-52.3 20.1 0 30.9 17.6 30.9 40.9 0 32.5-40.7 63.3-103.1 82.4z"/></g></svg>
